<svg width="298" height="76" viewBox="0 0 298 76" fill="none" xmlns="http://www.w3.org/2000/svg">
<g clip-path="url(#clip0_1_7)">
<path fill-rule="evenodd" clip-rule="evenodd" d="M234 72H290C294.418 72 298 68.4183 298 64V8C298 3.58172 294.418 0 290 0H234C229.582 0 226 3.58172 226 8V64C226 68.4183 229.582 72 234 72Z" fill="#007EBB"/>
<path fill-rule="evenodd" clip-rule="evenodd" d="M288 62H277.316V43.8021C277.316 38.8128 275.42 36.0245 271.471 36.0245C267.175 36.0245 264.93 38.9261 264.93 43.8021V62H254.633V27.3333H264.93V32.0029C264.93 32.0029 268.026 26.2742 275.383 26.2742C282.736 26.2742 288 30.7645 288 40.0512V62ZM242.349 22.794C238.842 22.794 236 19.9297 236 16.397C236 12.8644 238.842 10 242.349 10C245.857 10 248.697 12.8644 248.697 16.397C248.697 19.9297 245.857 22.794 242.349 22.794ZM237.033 62H247.769V27.3333H237.033V62Z" fill="white"/>
</g>
<path d="M27.72 51.972C30.216 51.972 32.436 51.624 34.38 50.928C36.324 50.208 37.752 49.5 38.664 48.804L42.516 56.472C41.412 57.432 39.504 58.404 36.792 59.388C34.104 60.372 30.888 60.864 27.144 60.864C23.64 60.864 20.364 60.252 17.316 59.028C14.268 57.78 11.592 56.052 9.288 53.844C6.984 51.612 5.184 49.008 3.888 46.032C2.592 43.032 1.944 39.792 1.944 36.312C1.944 32.832 2.58 29.592 3.852 26.592C5.148 23.568 6.948 20.94 9.252 18.708C11.556 16.476 14.232 14.736 17.28 13.488C20.352 12.24 23.64 11.616 27.144 11.616C30.888 11.616 34.104 12.108 36.792 13.092C39.504 14.076 41.412 15.048 42.516 16.008L38.664 23.676C37.752 22.98 36.324 22.284 34.38 21.588C32.436 20.868 30.216 20.508 27.72 20.508C25.176 20.508 22.908 20.916 20.916 21.732C18.948 22.548 17.268 23.688 15.876 25.152C14.508 26.592 13.464 28.26 12.744 30.156C12.024 32.052 11.664 34.068 11.664 36.204C11.664 38.364 12.024 40.404 12.744 42.324C13.464 44.22 14.508 45.9 15.876 47.364C17.268 48.804 18.948 49.932 20.916 50.748C22.908 51.564 25.176 51.972 27.72 51.972ZM60.2747 60.864C57.1307 60.864 54.3227 60.192 51.8507 58.848C49.4027 57.504 47.4827 55.668 46.0907 53.34C44.6987 50.988 44.0027 48.312 44.0027 45.312C44.0027 42.312 44.6987 39.636 46.0907 37.284C47.4827 34.908 49.4027 33.036 51.8507 31.668C54.3227 30.276 57.1307 29.58 60.2747 29.58C63.4427 29.58 66.2387 30.276 68.6627 31.668C71.0867 33.036 72.9827 34.908 74.3507 37.284C75.7187 39.636 76.4027 42.312 76.4027 45.312C76.4027 48.312 75.7187 50.988 74.3507 53.34C72.9827 55.668 71.0867 57.504 68.6627 58.848C66.2387 60.192 63.4427 60.864 60.2747 60.864ZM60.2747 53.268C61.7867 53.268 63.0947 52.932 64.1987 52.26C65.3267 51.564 66.1907 50.616 66.7907 49.416C67.4147 48.192 67.7267 46.812 67.7267 45.276C67.7267 43.74 67.4147 42.36 66.7907 41.136C66.1907 39.912 65.3267 38.952 64.1987 38.256C63.0947 37.536 61.7867 37.176 60.2747 37.176C58.7627 37.176 57.4427 37.536 56.3147 38.256C55.2107 38.952 54.3467 39.912 53.7227 41.136C53.0987 42.36 52.7867 43.74 52.7867 45.276C52.7867 46.812 53.0987 48.192 53.7227 49.416C54.3467 50.616 55.2107 51.564 56.3147 52.26C57.4427 52.932 58.7627 53.268 60.2747 53.268ZM117.604 29.58C119.812 29.58 121.732 30.048 123.364 30.984C125.02 31.92 126.304 33.36 127.216 35.304C128.152 37.224 128.62 39.696 128.62 42.72V60H119.62V44.196C119.62 41.7 119.248 39.756 118.504 38.364C117.784 36.972 116.404 36.276 114.364 36.276C113.212 36.276 112.156 36.588 111.196 37.212C110.236 37.812 109.468 38.7 108.892 39.876C108.34 41.052 108.064 42.492 108.064 44.196V60H99.6401V44.196C99.6401 41.7 99.2201 39.756 98.3801 38.364C97.5401 36.972 96.2081 36.276 94.3841 36.276C93.2081 36.276 92.1401 36.576 91.1801 37.176C90.2441 37.776 89.5001 38.664 88.9481 39.84C88.4201 40.992 88.1561 42.444 88.1561 44.196V60H79.0841V30.444H88.1561V34.764C88.4201 34.02 89.0201 33.252 89.9561 32.46C90.9161 31.668 92.1041 30.996 93.5201 30.444C94.9361 29.868 96.4601 29.58 98.0921 29.58C99.8681 29.58 101.344 29.88 102.52 30.48C103.696 31.08 104.644 31.848 105.364 32.784C106.108 33.696 106.672 34.656 107.056 35.664C107.392 34.728 108.052 33.792 109.036 32.856C110.02 31.92 111.256 31.14 112.744 30.516C114.232 29.892 115.852 29.58 117.604 29.58ZM170.887 29.58C173.095 29.58 175.015 30.048 176.647 30.984C178.303 31.92 179.587 33.36 180.499 35.304C181.435 37.224 181.903 39.696 181.903 42.72V60H172.903V44.196C172.903 41.7 172.531 39.756 171.787 38.364C171.067 36.972 169.687 36.276 167.647 36.276C166.495 36.276 165.439 36.588 164.479 37.212C163.519 37.812 162.751 38.7 162.175 39.876C161.623 41.052 161.347 42.492 161.347 44.196V60H152.923V44.196C152.923 41.7 152.503 39.756 151.663 38.364C150.823 36.972 149.491 36.276 147.667 36.276C146.491 36.276 145.423 36.576 144.463 37.176C143.527 37.776 142.783 38.664 142.231 39.84C141.703 40.992 141.439 42.444 141.439 44.196V60H132.367V30.444H141.439V34.764C141.703 34.02 142.303 33.252 143.239 32.46C144.199 31.668 145.387 30.996 146.803 30.444C148.219 29.868 149.743 29.58 151.375 29.58C153.151 29.58 154.627 29.88 155.803 30.48C156.979 31.08 157.927 31.848 158.647 32.784C159.391 33.696 159.955 34.656 160.339 35.664C160.675 34.728 161.335 33.792 162.319 32.856C163.303 31.92 164.539 31.14 166.027 30.516C167.515 29.892 169.135 29.58 170.887 29.58ZM186.01 60V30.444H195.118V60H186.01ZM190.69 22.812C189.178 22.812 187.894 22.284 186.838 21.228C185.806 20.172 185.29 18.912 185.29 17.448C185.29 15.984 185.818 14.712 186.874 13.632C187.93 12.552 189.202 12.012 190.69 12.012C191.674 12.012 192.574 12.264 193.39 12.768C194.206 13.248 194.866 13.896 195.37 14.712C195.874 15.528 196.126 16.44 196.126 17.448C196.126 18.912 195.586 20.172 194.506 21.228C193.45 22.284 192.178 22.812 190.69 22.812ZM197.315 30.444H202.643V18.312H211.715V30.444H218.699V38.04H211.715V48.732C211.715 50.148 211.943 51.252 212.399 52.044C212.855 52.812 213.575 53.196 214.559 53.196C215.303 53.196 215.915 53.052 216.395 52.764C216.875 52.452 217.163 52.236 217.259 52.116L220.499 58.668C220.355 58.812 219.887 59.064 219.095 59.424C218.327 59.784 217.331 60.108 216.107 60.396C214.907 60.708 213.551 60.864 212.039 60.864C209.327 60.864 207.083 60.084 205.307 58.524C203.531 56.94 202.643 54.492 202.643 51.18V38.04H197.315V30.444Z" fill="black"/>
<defs>
<clipPath id="clip0_1_7">
<rect width="72" height="72" fill="white" transform="translate(226)"/>
</clipPath>
</defs>
</svg>
